<svg data-v-423bf9ae="" xmlns="http://www.w3.org/2000/svg" viewBox="0 0 517 112" class="iconLeft"><!----><!----><!----><g data-v-423bf9ae="" id="f75af5ac-73f0-4ca2-8028-f1803a1b56b1" fill="#3A3D8B" transform="matrix(5.15021433931534,0,0,5.15021433931534,128.94803482913068,-8.53886442375584)"><path d="M4.83 8.08L7.63 7.87L7.63 17.18L6.23 17.18L5.71 16.48L5.71 16.48Q4.98 17.39 3.43 17.39L3.43 17.39L3.43 17.39Q1.86 17.39 1.14 16.50L1.14 16.50L1.14 16.50Q0.42 15.61 0.42 13.68L0.42 13.68L0.42 13.68Q0.42 11.75 1.14 10.86L1.14 10.86L1.14 10.86Q1.86 9.97 3.43 9.97L3.43 9.97L3.43 9.97Q4.23 9.97 4.83 10.21L4.83 10.21L4.83 8.08ZM4.28 15.29L4.28 15.29Q4.59 15.29 4.71 15.20L4.71 15.20L4.71 15.20Q4.83 15.12 4.83 14.90L4.83 14.90L4.83 12.07L3.98 12.07L3.98 12.07Q3.67 12.07 3.55 12.15L3.55 12.15L3.55 12.15Q3.43 12.24 3.43 12.46L3.43 12.46L3.43 15.29L4.28 15.29ZM12.74 15.34L12.74 15.34Q13.90 15.34 15.23 14.98L15.23 14.98L15.57 16.91L15.57 16.91Q14.13 17.39 12.46 17.39L12.46 17.39L12.46 17.39Q10.56 17.39 9.65 16.48L9.65 16.48L9.65 16.48Q8.75 15.58 8.75 13.68L8.75 13.68L8.75 13.68Q8.75 11.76 9.65 10.86L9.65 10.86L9.65 10.86Q10.54 9.97 12.46 9.97L12.46 9.97L12.46 9.97Q13.75 9.97 14.45 10.19L14.45 10.19L14.45 10.19Q15.15 10.40 15.45 10.91L15.45 10.91L15.45 10.91Q15.75 11.42 15.75 12.35L15.75 12.35L15.75 12.35Q15.75 13.20 15.36 13.71L15.36 13.71L15.36 13.71Q14.97 14.21 14.11 14.43L14.11 14.43L14.11 14.43Q13.24 14.66 11.76 14.66L11.76 14.66L11.76 15.29L11.76 15.29Q12.05 15.34 12.74 15.34L12.74 15.34ZM12.73 12.00L12.73 12.00Q12.18 12.00 11.97 12.11L11.97 12.11L11.97 12.11Q11.76 12.22 11.76 12.53L11.76 12.53L11.76 13.26L12.26 13.26L12.26 13.26Q12.81 13.26 13.02 13.13L13.02 13.13L13.02 13.13Q13.23 13.01 13.23 12.67L13.23 12.67L13.23 12.00L12.73 12.00ZM16.35 10.18L19.08 10.18L19.98 14.73L20.12 14.73L21.01 10.18L23.74 10.18L22.15 17.18L17.95 17.18L16.35 10.18ZM31.60 16.04L32.59 16.66L31.86 18.27L29.18 17.39L29.18 16.59L28.34 17.39L28.34 17.39Q26.78 17.39 25.89 16.95L25.89 16.95L25.89 16.95Q25.00 16.51 24.61 15.52L24.61 15.52L24.61 15.52Q24.21 14.53 24.21 12.81L24.21 12.81L24.21 12.81Q24.21 11.09 24.61 10.09L24.61 10.09L24.61 10.09Q25.00 9.10 25.89 8.66L25.89 8.66L25.89 8.66Q26.78 8.22 28.34 8.22L28.34 8.22L28.34 8.22Q29.89 8.22 30.78 8.66L30.78 8.66L30.78 8.66Q31.67 9.10 32.07 10.09L32.07 10.09L32.07 10.09Q32.47 11.09 32.47 12.81L32.47 12.81L32.47 12.81Q32.47 14 32.26 14.78L32.26 14.78L32.26 14.78Q32.06 15.55 31.60 16.04L31.60 16.04ZM28.38 14.99L28.38 14.99Q28.99 14.99 29.23 14.83L29.23 14.83L29.23 14.83Q29.47 14.67 29.47 14.25L29.47 14.25L29.47 10.61L28.29 10.61L28.29 10.61Q27.68 10.61 27.45 10.77L27.45 10.77L27.45 10.77Q27.22 10.93 27.22 11.35L27.22 11.35L27.22 14.99L28.38 14.99ZM40.52 10.18L40.52 17.18L39.12 17.18L38.42 16.48L38.42 16.48Q37.18 17.39 35.62 17.39L35.62 17.39L35.62 17.39Q34.52 17.39 34.02 16.91L34.02 16.91L34.02 16.91Q33.52 16.42 33.52 15.36L33.52 15.36L33.52 10.18L36.32 10.18L36.32 15.50L37.17 15.50L37.17 15.50Q37.46 15.50 37.59 15.41L37.59 15.41L37.59 15.41Q37.72 15.32 37.72 15.11L37.72 15.11L37.72 10.18L40.52 10.18ZM41.83 17.18L41.83 17.18ZM41.92 10.53L44.72 10.18L44.72 17.18L41.92 17.18L41.92 10.53ZM43.32 9.59L43.32 9.59Q42.73 9.59 42.41 9.46L42.41 9.46L42.41 9.46Q42.10 9.34 41.97 9.02L41.97 9.02L41.97 9.02Q41.83 8.71 41.83 8.12L41.83 8.12L41.83 8.12Q41.83 7.27 42.15 6.94L42.15 6.94L42.15 6.94Q42.46 6.62 43.32 6.62L43.32 6.62L43.32 6.62Q44.16 6.62 44.47 6.94L44.47 6.94L44.47 6.94Q44.79 7.27 44.79 8.12L44.79 8.12L44.79 8.12Q44.79 8.69 44.65 9.01L44.65 9.01L44.65 9.01Q44.52 9.32 44.21 9.46L44.21 9.46L44.21 9.46Q43.90 9.59 43.32 9.59L43.32 9.59ZM48.72 12.28L48.68 12.19L46.30 12.19L46.12 10.18L52.25 10.18L52.25 11.72L49.43 15.08L49.48 15.16L52.35 15.16L52.35 17.18L45.91 17.18L45.91 15.64L48.72 12.28ZM56.14 12.28L56.10 12.19L53.72 12.19L53.54 10.18L59.67 10.18L59.67 11.72L56.85 15.08L56.90 15.16L59.77 15.16L59.77 17.18L53.33 17.18L53.33 15.64L56.14 12.28ZM64.67 15.34L64.67 15.34Q65.83 15.34 67.16 14.98L67.16 14.98L67.49 16.91L67.49 16.91Q66.05 17.39 64.39 17.39L64.39 17.39L64.39 17.39Q62.48 17.39 61.58 16.48L61.58 16.48L61.58 16.48Q60.68 15.58 60.68 13.68L60.68 13.68L60.68 13.68Q60.68 11.76 61.57 10.86L61.57 10.86L61.57 10.86Q62.47 9.97 64.39 9.97L64.39 9.97L64.39 9.97Q65.67 9.97 66.37 10.19L66.37 10.19L66.37 10.19Q67.07 10.40 67.38 10.91L67.38 10.91L67.38 10.91Q67.68 11.42 67.68 12.35L67.68 12.35L67.68 12.35Q67.68 13.20 67.28 13.71L67.28 13.71L67.28 13.71Q66.89 14.21 66.03 14.43L66.03 14.43L66.03 14.43Q65.17 14.66 63.69 14.66L63.69 14.66L63.69 15.29L63.69 15.29Q63.98 15.34 64.67 15.34L64.67 15.34ZM64.65 12.00L64.65 12.00Q64.11 12.00 63.90 12.11L63.90 12.11L63.90 12.11Q63.69 12.22 63.69 12.53L63.69 12.53L63.69 13.26L64.19 13.26L64.19 13.26Q64.74 13.26 64.95 13.13L64.95 13.13L64.95 13.13Q65.16 13.01 65.16 12.67L65.16 12.67L65.16 12.00L64.65 12.00ZM68.68 12.33L68.68 12.33Q68.68 11.12 69.44 10.54L69.44 10.54L69.44 10.54Q70.20 9.97 71.81 9.97L71.81 9.97L71.81 9.97Q73.42 9.97 74.83 10.28L74.83 10.28L74.51 12.21L74.51 12.21Q73.84 12.03 72.87 12.03L72.87 12.03L72.87 12.03Q72.14 12.03 71.69 12.17L71.69 12.17L71.69 12.67L71.69 12.67Q73.00 12.81 73.75 13.08L73.75 13.08L73.75 13.08Q74.51 13.34 74.84 13.80L74.84 13.80L74.84 13.80Q75.18 14.27 75.18 14.99L75.18 14.99L75.18 14.99Q75.18 16.24 74.33 16.81L74.33 16.81L74.33 16.81Q73.49 17.39 71.65 17.39L71.65 17.39L71.65 17.39Q70.84 17.39 70.02 17.26L70.02 17.26L70.02 17.26Q69.20 17.14 68.59 16.91L68.59 16.91L68.94 14.90L68.94 14.90Q69.93 15.33 71.18 15.33L71.18 15.33L71.18 15.33Q71.53 15.33 72.17 15.22L72.17 15.22L72.17 14.67L72.17 14.67Q70.78 14.53 70.04 14.29L70.04 14.29L70.04 14.29Q69.30 14.04 68.99 13.59L68.99 13.59L68.99 13.59Q68.68 13.13 68.68 12.33L68.68 12.33Z"></path></g><!----><g data-v-423bf9ae="" id="7edaf9ca-c6f1-4dae-8787-3e3817870947" transform="matrix(1.1111111111111112,0,0,1.1111111111111112,0.44444444444444287,0.44444444444444287)" stroke="none" fill="#6F64C5"><path d="M80.944 16C81.908 6.669 82 0 82 0H18.001s.091 6.669 1.056 16H0v3c0 36.992 26.842 46.346 35.799 48.435 3.146 3.326 6.846 5.603 11.201 6.321V81c0 7-15 13-21 13a3.001 3.001 0 0 0 0 6h48a3.001 3.001 0 0 0 0-6c-6 0-21-6-21-13v-7.244c4.355-.719 8.057-2.994 11.203-6.321C73.162 65.344 100 55.99 100 19v-3H80.944zM6.066 22h13.697c1.598 12.098 4.637 26.756 10.402 37.428C20.676 55.47 7.123 45.693 6.066 22zm49.663 4.102L59.271 37 50 30.265 40.729 37l3.541-10.898L35 19.367h11.459L50 8.469l3.541 10.898H65l-9.271 6.735zm14.107 33.326c5.766-10.672 8.805-25.331 10.4-37.428h13.697c-1.056 23.693-14.609 33.471-24.097 37.428z"></path></g><!----></svg>